<?xml version="1.0" encoding="UTF-8" standalone="no"?>
<!-- Generator: Adobe Illustrator 18.1.1, SVG Export Plug-In . SVG Version: 6.00 Build 0)  -->

<svg
   xmlns:dc="http://purl.org/dc/elements/1.1/"
   xmlns:cc="http://creativecommons.org/ns#"
   xmlns:rdf="http://www.w3.org/1999/02/22-rdf-syntax-ns#"
   xmlns:svg="http://www.w3.org/2000/svg"
   xmlns="http://www.w3.org/2000/svg"
   xmlns:sodipodi="http://sodipodi.sourceforge.net/DTD/sodipodi-0.dtd"
   xmlns:inkscape="http://www.inkscape.org/namespaces/inkscape"
   version="1.1"
   id="Layer_1"
   x="0px"
   y="0px"
   viewBox="1143.3 379.1 169.3 141.7"
   enable-background="new 1143.3 379.1 169.3 141.7"
   xml:space="preserve"
   inkscape:version="0.48.3.1 r9886"
   width="100%"
   height="100%"
   sodipodi:docname="howitworks_1.svg"><metadata
   id="metadata27"><rdf:RDF><cc:Work
       rdf:about=""><dc:format>image/svg+xml</dc:format><dc:type
         rdf:resource="http://purl.org/dc/dcmitype/StillImage" /></cc:Work></rdf:RDF></metadata><defs
   id="defs25">
	
	
	

		
		
		
			
	</defs><sodipodi:namedview
   pagecolor="#ffffff"
   bordercolor="#666666"
   borderopacity="1"
   objecttolerance="10"
   gridtolerance="10"
   guidetolerance="10"
   inkscape:pageopacity="0"
   inkscape:pageshadow="2"
   inkscape:window-width="1316"
   inkscape:window-height="744"
   id="namedview23"
   showgrid="false"
   inkscape:zoom="2.3553592"
   inkscape:cx="38.746069"
   inkscape:cy="86.445399"
   inkscape:window-x="50"
   inkscape:window-y="24"
   inkscape:window-maximized="1"
   inkscape:current-layer="Layer_1" />
<path
   stroke-miterlimit="10"
   d="m 1178,419.8 h 111.8 c 2.2,0 3.9,1.4 3.9,3.2 v 28.7 c 0,1.8 -1.7,3.2 -3.9,3.2 h -95.3 l -15.6,8.6 5.6,-8.6 h -6.5 c -2.2,0 -3.9,-1.4 -3.9,-3.2 V 423 c 0,-1.7 1.7,-3.2 3.9,-3.2 z"
   id="path7"
   inkscape:connector-curvature="0"
   style="fill:none;stroke:#2a546d;stroke-width:0.93959999;stroke-miterlimit:10" /><line
   stroke-miterlimit="10"
   x1="1201.1"
   y1="436.60001"
   x2="1271.5"
   y2="436.60001"
   id="line17"
   style="fill:none;stroke:#2a546d;stroke-width:3.27559996;stroke-miterlimit:10" /><path
   style="fill:none;stroke:#2a546d;stroke-width:0.93959999;stroke-miterlimit:10"
   inkscape:connector-curvature="0"
   id="path19"
   d="m 1301.1,462.7 h -89.5 c -1.7,0 -3.1,1.1 -3.1,2.6 v 23 c 0,1.4 1.4,2.6 3.1,2.6 h 76.2 l 12.5,6.9 -4.5,-6.9 h 5.2 c 1.7,0 3.1,-1.1 3.1,-2.6 v -23 c 0.1,-1.5 -1.3,-2.6 -3,-2.6 z"
   stroke-miterlimit="10" /><line
   style="fill:none;stroke:#2a546d;stroke-width:3.27559996;stroke-miterlimit:10"
   id="line21"
   y2="476.10001"
   x2="1286.4"
   y1="476.10001"
   x1="1230.1"
   stroke-miterlimit="10" />
<path
   d="m 1186.0888,417.2312 a 16.465884,16.465884 0 0 1 -32.9317,0 16.465884,16.465884 0 1 1 32.9317,0 z"
   style="fill-opacity:1;stroke:#2a546d;stroke-width:0.90000004000000000;stroke-linecap:butt;stroke-linejoin:miter;stroke-miterlimit:4;stroke-dasharray:none;stroke-dashoffset:0;fill:#ffffff;stroke-opacity:1"
   id="path9261"
   inkscape:connector-curvature="0" /><path
   d="m 1169.6229,409.91302 v 1.82955 -1.82955 z m 0,5.48864 v 12.80679 -12.80679 z"
   style="fill:#2a546d;stroke:#2a546d;stroke-width:2;stroke-linecap:butt;stroke-linejoin:miter;stroke-miterlimit:4;stroke-dasharray:none;fill-opacity:1;stroke-opacity:1"
   id="path10031"
   inkscape:connector-curvature="0" /></svg>