<?xml version="1.0" encoding="utf-8"?>
<!-- Generator: Adobe Illustrator 18.1.1, SVG Export Plug-In . SVG Version: 6.00 Build 0)  -->
<!DOCTYPE svg PUBLIC "-//W3C//DTD SVG 1.1//EN" "http://www.w3.org/Graphics/SVG/1.1/DTD/svg11.dtd">
<svg version="1.1" id="Layer_1" xmlns="http://www.w3.org/2000/svg" xmlns:xlink="http://www.w3.org/1999/xlink" x="0px" y="0px"
	 viewBox="0 0 247.5 85" enable-background="new 0 0 247.5 85" xml:space="preserve">
<g id="Page-1_3_" sketch:type="MSPage">
	<g id="Logo_2_" sketch:type="MSArtboardGroup">
		<g id="Group-Copy_2_" transform="translate(9.000000, 16.000000)" sketch:type="MSLayerGroup">
			<path fill="none" stroke="#FFFFFF" stroke-width="2" stroke-miterlimit="10" d="M228.8-11.9h-112c-2.8,0-5.1,2.3-5.1,5.1v46.7
				c0,2.8,2.3,5.1,5.1,5.1h81.9l20.5,20.5V45.1h9.6c2.8,0,5.1-2.3,5.1-5.1V-6.8C233.9-9.6,231.6-11.9,228.8-11.9z"/>
			<path id="Ready-Copy-20_2_" sketch:type="MSShapeGroup" fill="#FFFFFF" d="M124.2,26.5h10l0.4-2.6h-3.3l1-6h4.5l3.6,8.7h5.1
				l0.4-2.6h-3.2l-2.7-6.6c3.9-0.9,6.5-3.4,6.5-7.1c0-4-3.1-6.4-8.1-6.4h-10.3l-0.5,2.6h3.4L128,23.8h-3.3L124.2,26.5z M132.9,15.2
				l1.5-8.8h4c3.5,0,5,1.5,5,3.8c0,2.6-1.9,5-6.5,5H132.9z M155.7,26.9c2,0,3.8-0.5,5-1.2l0.5-2.6c-1.5,0.7-3.3,1.3-5.1,1.3
				c-2.7,0-4.3-1.3-4.5-4.2c5.3-0.3,10.7-1.7,10.7-6c0-2.4-1.7-4.1-4.9-4.1c-5,0-9,4.1-9,9.6C148.5,24.6,151.6,26.9,155.7,26.9
				L155.7,26.9z M151.8,17.8c0.7-3.1,2.9-5.3,5.5-5.3c1.6,0,2.1,0.8,2.1,1.8C159.4,16.7,155.6,17.7,151.8,17.8L151.8,17.8z
				 M170.6,26.9c2.3,0,4.3-1.2,5.7-2.9c0.1,1.8,1,2.8,3.2,2.8c0.9,0,1.8-0.2,2.5-0.4l0.4-2.5c-0.5,0.2-1.3,0.4-1.9,0.4
				c-1.1,0-1.5-0.6-1.2-1.7l2.1-12.2h-3.2l-0.5,2.6c-0.9-1.8-2.6-3-5-3c-4.5,0-8.4,3.8-8.4,9.5C164.4,24.4,167.1,26.9,170.6,26.9
				L170.6,26.9z M171.6,24.4c-2.4,0-3.9-1.8-3.9-4.8c0-3.9,2.4-7,5.6-7c2.5,0,3.9,1.9,3.9,4.8C177.2,21.2,174.8,24.4,171.6,24.4
				L171.6,24.4z M190.8,26.9c2.3,0,4.3-1.2,5.7-2.9c0.1,1.7,0.9,2.8,3.2,2.8c0.9,0,1.9-0.2,2.6-0.4l0.4-2.5
				c-0.5,0.2-1.3,0.4-1.9,0.4c-1,0-1.5-0.5-1.2-1.7l4-22.6h-6.5l-0.4,2.5h3.3L198,13.1c-0.9-1.8-2.6-3-5-3c-4.5,0-8.4,3.8-8.4,9.5
				C184.6,24.4,187.3,26.9,190.8,26.9L190.8,26.9z M191.8,24.4c-2.4,0-3.9-1.8-3.9-4.8c0-3.9,2.4-7,5.6-7c2.5,0,3.9,1.9,3.9,4.8
				C197.4,21.2,195,24.4,191.8,24.4L191.8,24.4z M208.4,26.5h2.8c-2.5,3-5.3,5.3-7.5,5.3c-1.2,0-2.3-0.6-2.9-1.2l-1.4,1.8
				c1,1,2.5,1.9,4.4,1.9c7.9,0,17-15.1,17-20.8c0-2-1-3.4-3.2-3.4c-1.8,0-3.2,0.9-4.2,1.6l1,1.9c0.7-0.5,1.5-0.9,2.2-0.9
				c0.7,0,1,0.3,1,1.2c0,2.5-2.8,8-6.2,12.2l-1.9-15.7h-5l-0.4,2.5h2.6L208.4,26.5z"/>
			<path id="CAMHS-Copy-17_2_" sketch:type="MSShapeGroup" fill="#FFFFFF" d="M8.4,21.8C7.6,24.3,6,26,3.6,26C-0.5,26-2,21.3-2,15.3
				S-0.5,4.6,3.6,4.6c2.6,0,4.1,1.8,4.9,4.6l3.2-1.8c-1.3-3.7-3.8-6.3-8.1-6.3c-7,0-9.2,6.6-9.2,14.2s2.3,14.2,9.2,14.2
				c4.1,0,6.6-2.3,8-5.8L8.4,21.8z M31.7,29.1L24.6,1.5h-3.9l-7.2,27.6h3.8l1.4-5.6h7.8l1.4,5.6H31.7z M25.8,20.2h-6.3L22,9.8
				c0.3-1.1,0.6-2.7,0.6-2.7h0.1c0,0,0.3,1.7,0.6,2.7L25.8,20.2z M56.2,29.1V1.5h-4l-5.1,9.6C46.7,12,46,13.4,46,13.4h-0.1
				c0,0-0.6-1.3-1.1-2.2l-5.1-9.6h-3.9v27.6h3.5V10.4c0-1.1,0-2.5,0-2.5h0.1c0,0,0.6,1.3,1.1,2.2l5.4,10h0.3l5.5-10
				c0.5-0.9,1-2.1,1-2.1h0.1c0,0,0,1.3,0,2.4v18.7H56.2z M79,29.1V1.5h-3.6v13h-9.1v-13h-3.6v27.6h3.6V18h9.1v11.1H79z M83.3,24.2
				c1.4,3.1,4.5,5.2,8.6,5.2c5.1,0,8.3-3.2,8.3-7.7c0-9-12.2-7.5-12.2-13.5c0-2,1.4-3.6,3.8-3.6c2.6,0,4,1.7,4.7,3.9l3.3-1.9
				c-1.3-3.3-3.8-5.5-8-5.5c-4.6,0-7.5,3.2-7.5,7.2c0,8.7,12.3,7.6,12.3,13.5c0,2.4-1.7,4.1-4.6,4.1c-2.5,0-4.6-1.5-5.5-3.8
				L83.3,24.2z"/>
		</g>
	</g>
</g>
</svg>
