<!-- Generator: Adobe Illustrator 18.1.1, SVG Export Plug-In . SVG Version: 6.00 Build 0)  -->
<svg id="Layer_1" xmlns:rdf="http://www.w3.org/1999/02/22-rdf-syntax-ns#" xmlns="http://www.w3.org/2000/svg" enable-background="new 0 0 247.5 85" xml:space="preserve" viewBox="0 0 247.5 85" height="100%" width="100%" version="1.1" y="0px" x="0px" xmlns:cc="http://creativecommons.org/ns#" xmlns:dc="http://purl.org/dc/elements/1.1/"><metadata id="metadata14"><rdf:RDF><cc:Work rdf:about=""><dc:format>image/svg+xml</dc:format><dc:type rdf:resource="http://purl.org/dc/dcmitype/StillImage"/><dc:title/></cc:Work></rdf:RDF></metadata><defs id="defs12">
	</defs>
<g id="Group-Copy_2_" style="stroke:#2a546b;" type="MSLayerGroup" transform="translate(9,16)">
			<path id="path6" style="stroke:#2a546b;stroke-width:2;stroke-miterlimit:10;fill:none;" stroke-miterlimit="10" d="m228.8-11.9h-112c-2.8,0-5.1,2.3-5.1,5.1v46.7c0,2.8,2.3,5.1,5.1,5.1h81.9l20.5,20.5v-20.4h9.6c2.8,0,5.1-2.3,5.1-5.1v-46.8c0-2.8-2.3-5.1-5.1-5.1z"/>
			<path id="Ready-Copy-20_2_" style="stroke:#2a546b;fill:#2a546b;" type="MSShapeGroup" d="m124.2,26.5h10l0.4-2.6h-3.3l1-6h4.5l3.6,8.7h5.1l0.4-2.6h-3.2l-2.7-6.6c3.9-0.9,6.5-3.4,6.5-7.1,0-4-3.1-6.4-8.1-6.4h-10.3l-0.5,2.6h3.4l-3,17.3h-3.3l-0.5,2.7zm8.7-11.3,1.5-8.8h4c3.5,0,5,1.5,5,3.8,0,2.6-1.9,5-6.5,5h-4zm22.8,11.7c2,0,3.8-0.5,5-1.2l0.5-2.6c-1.5,0.7-3.3,1.3-5.1,1.3-2.7,0-4.3-1.3-4.5-4.2,5.3-0.3,10.7-1.7,10.7-6,0-2.4-1.7-4.1-4.9-4.1-5,0-9,4.1-9,9.6,0.1,4.9,3.2,7.2,7.3,7.2zm-3.9-9.1c0.7-3.1,2.9-5.3,5.5-5.3,1.6,0,2.1,0.8,2.1,1.8,0,2.4-3.8,3.4-7.6,3.5zm18.8,9.1c2.3,0,4.3-1.2,5.7-2.9,0.1,1.8,1,2.8,3.2,2.8,0.9,0,1.8-0.2,2.5-0.4l0.4-2.5c-0.5,0.2-1.3,0.4-1.9,0.4-1.1,0-1.5-0.6-1.2-1.7l2.1-12.2h-3.2l-0.5,2.6c-0.9-1.8-2.6-3-5-3-4.5,0-8.4,3.8-8.4,9.5,0.1,4.9,2.8,7.4,6.3,7.4zm1-2.5c-2.4,0-3.9-1.8-3.9-4.8,0-3.9,2.4-7,5.6-7,2.5,0,3.9,1.9,3.9,4.8,0,3.8-2.4,7-5.6,7zm19.2,2.5c2.3,0,4.3-1.2,5.7-2.9,0.1,1.7,0.9,2.8,3.2,2.8,0.9,0,1.9-0.2,2.6-0.4l0.4-2.5c-0.5,0.2-1.3,0.4-1.9,0.4-1,0-1.5-0.5-1.2-1.7l4-22.6h-6.5l-0.4,2.5h3.3l-2,10.6c-0.9-1.8-2.6-3-5-3-4.5,0-8.4,3.8-8.4,9.5,0,4.8,2.7,7.3,6.2,7.3zm1-2.5c-2.4,0-3.9-1.8-3.9-4.8,0-3.9,2.4-7,5.6-7,2.5,0,3.9,1.9,3.9,4.8,0,3.8-2.4,7-5.6,7zm16.6,2.1h2.8c-2.5,3-5.3,5.3-7.5,5.3-1.2,0-2.3-0.6-2.9-1.2l-1.4,1.8c1,1,2.5,1.9,4.4,1.9,7.9,0,17-15.1,17-20.8,0-2-1-3.4-3.2-3.4-1.8,0-3.2,0.9-4.2,1.6l1,1.9c0.7-0.5,1.5-0.9,2.2-0.9s1,0.3,1,1.2c0,2.5-2.8,8-6.2,12.2l-1.9-15.7h-5l-0.4,2.5h2.6l1.7,13.6z"/>
			<path id="CAMHS-Copy-17_2_" style="stroke:#2a546b;fill:#2a546b;" type="MSShapeGroup" d="M8.4,21.8c-0.8,2.5-2.4,4.2-4.8,4.2-4.1,0-5.6-4.7-5.6-10.7s1.5-10.7,5.6-10.7c2.6,0,4.1,1.8,4.9,4.6l3.2-1.8c-1.3-3.7-3.8-6.3-8.1-6.3-7,0-9.2,6.6-9.2,14.2s2.3,14.2,9.2,14.2c4.1,0,6.6-2.3,8-5.8l-3.2-1.9zm23.3,7.3-7.1-27.6h-3.9l-7.2,27.6h3.8l1.4-5.6h7.8l1.4,5.6h3.8zm-5.9-8.9h-6.3l2.5-10.4c0.3-1.1,0.6-2.7,0.6-2.7h0.1s0.3,1.7,0.6,2.7l2.5,10.4zm30.4,8.9v-27.6h-4l-5.1,9.6c-0.4,0.9-1.1,2.3-1.1,2.3h-0.1s-0.6-1.3-1.1-2.2l-5.1-9.6h-3.9v27.6h3.5v-18.8-2.5h0.1s0.6,1.3,1.1,2.2l5.4,10h0.3l5.5-10c0.5-0.9,1-2.1,1-2.1h0.1v2.4,18.7h3.4zm22.8,0v-27.6h-3.6v13h-9.1v-13h-3.6v27.6h3.6v-11.1h9.1v11.1h3.6zm4.3-4.9c1.4,3.1,4.5,5.2,8.6,5.2,5.1,0,8.3-3.2,8.3-7.7,0-9-12.2-7.5-12.2-13.5,0-2,1.4-3.6,3.8-3.6,2.6,0,4,1.7,4.7,3.9l3.3-1.9c-1.3-3.3-3.8-5.5-8-5.5-4.6,0-7.5,3.2-7.5,7.2,0,8.7,12.3,7.6,12.3,13.5,0,2.4-1.7,4.1-4.6,4.1-2.5,0-4.6-1.5-5.5-3.8l-3.2,2.1z"/>
		</g>
</svg>
