<?xml version="1.0" encoding="UTF-8" standalone="no"?>
<!-- Generator: Adobe Illustrator 18.1.1, SVG Export Plug-In . SVG Version: 6.00 Build 0)  -->

<svg
   xmlns:dc="http://purl.org/dc/elements/1.1/"
   xmlns:cc="http://creativecommons.org/ns#"
   xmlns:rdf="http://www.w3.org/1999/02/22-rdf-syntax-ns#"
   xmlns:svg="http://www.w3.org/2000/svg"
   xmlns="http://www.w3.org/2000/svg"
   xmlns:sodipodi="http://sodipodi.sourceforge.net/DTD/sodipodi-0.dtd"
   xmlns:inkscape="http://www.inkscape.org/namespaces/inkscape"
   version="1.1"
   id="Layer_1"
   x="0px"
   y="0px"
   viewBox="1322 379.1 195.3 141.7"
   enable-background="new 1322 379.1 195.3 141.7"
   xml:space="preserve"
   inkscape:version="0.48.3.1 r9886"
   width="100%"
   height="100%"
   sodipodi:docname="CAMHS_HP_2.svg"><metadata
   id="metadata57"><rdf:RDF><cc:Work
       rdf:about=""><dc:format>image/svg+xml</dc:format><dc:type
         rdf:resource="http://purl.org/dc/dcmitype/StillImage" /></cc:Work></rdf:RDF></metadata><defs
   id="defs55" /><sodipodi:namedview
   pagecolor="#ffffff"
   bordercolor="#666666"
   borderopacity="1"
   objecttolerance="10"
   gridtolerance="10"
   guidetolerance="10"
   inkscape:pageopacity="0"
   inkscape:pageshadow="2"
   inkscape:window-width="1316"
   inkscape:window-height="744"
   id="namedview53"
   showgrid="false"
   inkscape:zoom="2.1144412"
   inkscape:cx="46.776539"
   inkscape:cy="108.27074"
   inkscape:window-x="50"
   inkscape:window-y="24"
   inkscape:window-maximized="1"
   inkscape:current-layer="Layer_1" />
<g
   id="g3">
	<g
   id="g5">
		<polyline
   stroke-miterlimit="10"
   points="1407.9,416.8 1407.9,430.7     1421.8,430.7 1421.8,500.2 1421.8,430.7 1407.9,416.8 1360.6,416.8 1360.6,500.2 1421.8,500.2   "
   id="polyline7"
   stroke-width="1.2411"
   stroke="#2A546D"
   fill="none" />
		
			<line
   stroke-miterlimit="10"
   x1="1371.9"
   y1="447.5"
   x2="1409.9"
   y2="447.5"
   id="line9"
   stroke-width="3.2097"
   stroke="#2A546D"
   fill="none" />
		
			<line
   stroke-miterlimit="10"
   x1="1371.9"
   y1="459.7"
   x2="1409.9"
   y2="459.7"
   id="line11"
   stroke-width="3.2097"
   stroke="#2A546D"
   fill="none" />
		
			<line
   stroke-miterlimit="10"
   x1="1371.9"
   y1="471.8"
   x2="1409.9"
   y2="471.8"
   id="line13"
   stroke-width="3.2097"
   stroke="#2A546D"
   fill="none" />
		
			<line
   stroke-miterlimit="10"
   x1="1371.9"
   y1="483.9"
   x2="1409.9"
   y2="483.9"
   id="line15"
   stroke-width="3.2097"
   stroke="#2A546D"
   fill="none" />
		<g
   id="g17">
			<g
   id="g19">
				<polygon
   stroke-miterlimit="10"
   points="1441.4,500.2 1433.1,481.1       1432.9,406.1 1449.6,405.9 1449.8,480.8     "
   id="polygon21"
   stroke-width="1.2411"
   stroke="#2A546D"
   fill="none" />
				<path
   stroke-miterlimit="10"
   d="M1449.8,480.8c0,0-8.4-1.9-16.7,0.3"
   id="path23"
   stroke-width="1.2411"
   stroke="#2A546D"
   fill="#FFFFFF" />
				<path
   d="M1444.1,494.2c0,0-1.8-1.5-5.6-0.2l2.9,6.2L1444.1,494.2z"
   id="path25"
   fill="#2A546D" />
			</g>
			
				<line
   stroke-miterlimit="10"
   x1="1444.1"
   y1="475.3"
   x2="1444.1"
   y2="410.5"
   id="line27"
   stroke-width="3.2097"
   stroke="#2A546D"
   fill="none" />
			
				<line
   stroke-miterlimit="10"
   x1="1438.5"
   y1="475.3"
   x2="1438.5"
   y2="410.5"
   id="line29"
   stroke-width="3.2097"
   stroke="#2A546D"
   fill="none" />
		</g>
		<g
   id="g31">
			<path
   stroke-miterlimit="10"
   d="M1493.9,492.5c0,4.6-2.9,7.6-7.3,7.6h-17     c-4.4,0-7.3-3-7.3-7.6v-49.1c0-4.6,2.9-7.6,7.3-7.6h17c4.4,0,7.3,3,7.3,7.6V492.5z"
   id="path33"
   stroke-width="1.2411"
   stroke="#2A546D"
   fill="none" />
			
				<rect
   x="1465.4"
   y="444"
   stroke-miterlimit="10"
   width="25.4"
   height="44.3"
   id="rect35"
   stroke-width="1.2411"
   stroke="#2A546D"
   fill="none" />
			<ellipse
   cx="1477.9"
   cy="494"
   rx="3.2"
   ry="3.4"
   id="ellipse37"
   fill="#2A546D" />
			<path
   d="M1482.4,440.6c0,0.4-0.3,0.7-0.7,0.7h-7.1c-0.4,0-0.7-0.3-0.7-0.7l0,0c0-0.4,0.3-0.7,0.7-0.7h7.1     C1482.1,439.9,1482.4,440.2,1482.4,440.6L1482.4,440.6z"
   id="path39"
   fill="#2A546D" />
		</g>
	</g>
	<g
   id="g41">
		
		<g
   id="g45">
			
			
		</g>
		<circle
   cx="1357.4"
   cy="416.8"
   r="1.2"
   id="circle51"
   fill="#FFFFFF" />
	</g>
</g>
<path
   inkscape:connector-curvature="0"
   id="path9261"
   style="fill:#ffffff;fill-opacity:1;stroke:#2a546d;stroke-width:1.01235247;stroke-linecap:butt;stroke-linejoin:miter;stroke-miterlimit:4;stroke-opacity:1;stroke-dasharray:none;stroke-dashoffset:0"
   d="m 1373.064,413.91597 a 16.5395,16.5395 0 0 1 -33.079,0 16.5395,16.5395 0 1 1 33.079,0 z" /><path
   style="text-indent:0;text-align:start;text-transform:none;direction:ltr;block-progression:tb;baseline-shift:baseline;color:#000000;fill:#2a546d;fill-opacity:1;stroke:#2a546d;stroke-width:0.11720797;stroke-miterlimit:4;stroke-opacity:1;stroke-dasharray:none;enable-background:accumulate"
   d="m 1351.8735,402.33732 c 0.052,5.39533 -0.098,10.79223 0.072,16.18634 1.4658,3.29711 2.9349,6.59237 4.3952,9.89114 1.4743,-3.40967 3.093,-6.75515 4.4698,-10.20665 0,-5.31118 0,-10.62235 0,-15.93352 -2.9788,0 -5.9577,0 -8.9367,0 l 0,0.0318 0,0.0308 z m 1.3317,1.21426 c 2.11,0 4.22,0 6.33,0 -0.062,4.92076 0.1179,9.84692 -0.091,14.76406 -0.7162,1.6118 -1.4349,3.2224 -2.149,4.8351 -0.6821,0.18503 -1.3787,0.32298 -2.0501,0.53945 -0.7851,-1.94725 -1.8282,-3.79463 -2.4724,-5.79755 0.1236,-4.78034 0.246,-9.56073 0.3703,-14.34106 l 0.032,0 0.029,0 z"
   id="path10074"
   inkscape:connector-curvature="0" /><rect
   id="rect10076"
   style="fill:#2a546d;fill-opacity:1;stroke:#2a546d;stroke-width:0.22496721;stroke-linecap:butt;stroke-linejoin:miter;stroke-miterlimit:4;stroke-opacity:1;stroke-dasharray:none;stroke-dashoffset:0"
   height="10.107435"
   width="0.91885787"
   y="404.72702"
   x="1354.3981" /><rect
   id="rect10078"
   style="fill:#2a546d;fill-opacity:1;stroke:#2a546d;stroke-width:0.22496721;stroke-linecap:butt;stroke-linejoin:miter;stroke-miterlimit:4;stroke-opacity:1;stroke-dasharray:none;stroke-dashoffset:0"
   height="10.107435"
   width="0.91885787"
   y="404.72702"
   x="1357.1777" /><path
   inkscape:connector-curvature="0"
   id="path10103"
   style="text-indent:0;text-align:start;text-transform:none;direction:ltr;block-progression:tb;baseline-shift:baseline;color:#000000;fill:#2a546d;fill-opacity:1;stroke:#2a546d;stroke-width:0.56241804;stroke-miterlimit:4;stroke-opacity:1;stroke-dasharray:none;enable-background:accumulate"
   d="m 1356.5245,416.66703 c -1.2575,-0.009 -2.5176,0.20373 -3.773,0.66617 l 0.2504,0.7371 c 2.3282,-0.63464 4.5703,-0.47454 7.0569,0 l 0.2274,-0.7371 c -1.2493,-0.42284 -2.5041,-0.65687 -3.7617,-0.66617 z" /></svg>