<!-- Generator: Adobe Illustrator 18.1.1, SVG Export Plug-In . SVG Version: 6.00 Build 0)  -->
<svg id="Layer_1" xmlns:rdf="http://www.w3.org/1999/02/22-rdf-syntax-ns#" xmlns="http://www.w3.org/2000/svg" enable-background="new 441.4 679.1 141.7 141.7" xml:space="preserve" viewBox="441.4 679.1 141.7 141.7" height="100%" width="100%" version="1.1" y="0px" x="0px" xmlns:cc="http://creativecommons.org/ns#" xmlns:dc="http://purl.org/dc/elements/1.1/"><metadata id="metadata37"><rdf:RDF><cc:Work rdf:about=""><dc:format>image/svg+xml</dc:format><dc:type rdf:resource="http://purl.org/dc/dcmitype/StillImage"/><dc:title/></cc:Work></rdf:RDF></metadata><defs id="defs35">
	</defs>
<circle id="circle5" style="fill:#2a546d;" cx="512.3" cy="750" r="70.9"/><path id="path15" d="M545.3,720.2h-10.3v-3.4c0-0.6-0.5-1.1-1.1-1.1h-9.1c-0.6,0-1.1,0.5-1.1,1.1v3.4h-22.8v-3.4c0-0.6-0.5-1.1-1.1-1.1h-9.1c-0.6,0-1.1,0.5-1.1,1.1v3.4h-10.3c-0.6,0-1.1,0.5-1.1,1.1v14.6h68.4v-14.6c-0.1-0.6-0.6-1.1-1.3-1.1zm-46.7,6.8h-6.8v-9h6.8v9zm34.2,0h-6.8v-9h6.8v9z" style="fill:#ffffff;"/><path id="path17" style="fill:#ffffff;" d="M36.906,57.594v6.218,22.126l14,16.472h53.314c0.6,0,1.09-0.5,1.09-1.1v-43.716h-68.404zm33.5,9.718h4.406v23.782h-5v-0.094-17.188l-4,4-2.906-3,7.5-7.5z" transform="translate(441.4,679.1)"/><polyline id="polyline29" style="stroke:#2a546d;stroke-width:0.50000000000000000;stroke-miterlimit:10;fill:#ffffff;" points="494.2,783.9,494.2,765.2,477.4,765.2" stroke-miterlimit="10" transform="translate(1.0993647,-3.0021186)"/>
</svg>
