<!-- Generator: Adobe Illustrator 18.1.1, SVG Export Plug-In . SVG Version: 6.00 Build 0)  -->
<svg id="Layer_1" xmlns:rdf="http://www.w3.org/1999/02/22-rdf-syntax-ns#" xmlns="http://www.w3.org/2000/svg" enable-background="new 886.6 379.1 141.7 141.7" xml:space="preserve" viewBox="886.6 379.1 141.7 141.7" height="100%" width="100%" version="1.1" y="0px" x="0px" xmlns:cc="http://creativecommons.org/ns#" xmlns:dc="http://purl.org/dc/elements/1.1/"><metadata id="metadata13"><rdf:RDF><cc:Work rdf:about=""><dc:format>image/svg+xml</dc:format><dc:type rdf:resource="http://purl.org/dc/dcmitype/StillImage"/><dc:title/></cc:Work></rdf:RDF></metadata>
<g id="g3">
	<circle id="circle5" style="fill:#e44e68;" cy="450" cx="957.4" r="70.9" fill="#46BAC1"/>
	<path id="path7" d="M981.6,481.3h-4.5v-13.5c0-8.5-5.1-15.3-12.4-17.9,3.9-1.4,7.3-4,9.5-7.6,1.9-3,2.9-6.6,2.9-10.3v-13.4h4.5c0.6,0,1.1-0.5,1.1-1.1s-0.5-1.1-1.1-1.1h-46.9c-0.6,0-1.1,0.5-1.1,1.1s0.5,1.1,1.1,1.1h4.5v13.4c0,3.6,1,7.1,2.8,10,2.3,3.7,5.7,6.4,9.7,7.9-7.3,2.6-12.5,9.5-12.5,17.9v13.5h-4.5c-0.6,0-1.1,0.5-1.1,1.1s0.5,1.1,1.1,1.1h46.9c0.6,0,1.1-0.5,1.1-1.1s-0.5-1.1-1.1-1.1zm-38-40.9h-0.1c-1.4-2.5-2.1-5.4-2.1-8.3v-13.4h33.5v13.4c0,3-0.8,5.8-2.1,8.3h-29.2zm31.3,29.7h-8.5l-7.5-7.5c-0.4-0.4-1.1-0.4-1.6,0l-7.5,7.5h-8.5v-2.2c0-9.4,7.4-16.8,16.8-16.8,9.5,0,16.7,7.2,16.8,16.8v2.2z" fill="#FFFFFF"/>
</g>
</svg>
