<!-- Generator: Adobe Illustrator 18.1.1, SVG Export Plug-In . SVG Version: 6.00 Build 0)  -->
<svg id="Layer_1" xmlns:rdf="http://www.w3.org/1999/02/22-rdf-syntax-ns#" xmlns="http://www.w3.org/2000/svg" enable-background="new 738.1 379.1 141.7 141.7" xml:space="preserve" viewBox="738.1 379.1 141.7 141.7" height="100%" width="100%" version="1.1" y="0px" x="0px" xmlns:cc="http://creativecommons.org/ns#" xmlns:dc="http://purl.org/dc/elements/1.1/"><metadata id="metadata13"><rdf:RDF><cc:Work rdf:about=""><dc:format>image/svg+xml</dc:format><dc:type rdf:resource="http://purl.org/dc/dcmitype/StillImage"/><dc:title/></cc:Work></rdf:RDF></metadata><defs id="defs11">
</defs>
<circle id="circle5" style="fill:#e44e68;" cx="809.3" cy="450" r="70.9"/><path id="path7" d="m829.5,435.1h-3.2v6h-1.3v-6.6c0-1.4-1.8-3.2-3.2-3.2h-5.8v7h-1.3v-7.6c0-1.4-1.9-1.9-3.2-1.9h-5.8v9.6h-1.3v-23c0-2.3-2.2-4.5-4.5-4.5s-4.5,2.2-4.5,4.5v38.7l-8.8-8.8c-1.2-1-3.1-1-4.2,0.2-1.2,1.2-0.8,3,0.1,4.2,0.2,0.3,11.6,22.5,16.5,29.2h28.7l6.3-18.8c0.8-2.9,1.2-5.9,1.2-8.8v-11.5c0.1-2.5-3.2-4.7-5.7-4.7z" style="fill:#ffffff;"/>
</svg>
