<!-- Generator: Adobe Illustrator 18.1.1, SVG Export Plug-In . SVG Version: 6.00 Build 0)  -->
<svg id="Layer_1" xmlns:rdf="http://www.w3.org/1999/02/22-rdf-syntax-ns#" xmlns="http://www.w3.org/2000/svg" enable-background="new 590.1 679.1 141.7 141.7" xml:space="preserve" viewBox="590.1 679.1 141.7 141.7" height="100%" width="100%" version="1.1" y="0px" x="0px" xmlns:cc="http://creativecommons.org/ns#" xmlns:dc="http://purl.org/dc/elements/1.1/"><metadata id="metadata13"><rdf:RDF><cc:Work rdf:about=""><dc:format>image/svg+xml</dc:format><dc:type rdf:resource="http://purl.org/dc/dcmitype/StillImage"/><dc:title/></cc:Work></rdf:RDF></metadata><defs id="defs11">
</defs>
<circle id="circle5" style="fill:#5cd9cd;" cx="660.9" cy="750" r="70.9"/><path id="path7" d="m664.7,723.5c0,0.7,0.3,1.5,0.8,2.1l20.9,22.1h-58c-1.7,0-3,1.4-3,3s1.4,3,3,3h57.7l-20.5,20.5c-1.2,1.2-1.2,3.1,0,4.3s3.1,1.2,4.3,0l25.7-25.7c0.1-0.1,0.3-0.3,0.4-0.5,0.1-0.1,0.1-0.2,0.2-0.3,0-0.1,0.1-0.1,0.1-0.2,0.1-0.2,0.1-0.4,0.2-0.5,0-0.2,0.1-0.4,0.1-0.6v-0.2-0.4c0-0.1,0-0.2-0.1-0.3,0-0.1-0.1-0.2-0.1-0.3s-0.1-0.2-0.1-0.3-0.1-0.2-0.1-0.3c-0.1-0.1-0.1-0.2-0.2-0.3,0-0.1-0.1-0.1-0.1-0.2l-25.7-27.2c-1.1-1.2-3.1-1.3-4.3-0.1-0.9,0.8-1.2,1.6-1.2,2.4z" style="fill:#ffffff;"/>
</svg>
