<!-- Generator: Adobe Illustrator 18.1.1, SVG Export Plug-In . SVG Version: 6.00 Build 0)  -->
<svg id="Layer_1" xmlns:rdf="http://www.w3.org/1999/02/22-rdf-syntax-ns#" xmlns="http://www.w3.org/2000/svg" enable-background="new 441.4 831.1 141.7 141.7" xml:space="preserve" viewBox="441.4 831.1 141.7 141.7" height="100%" width="100%" version="1.1" y="0px" x="0px" xmlns:cc="http://creativecommons.org/ns#" xmlns:dc="http://purl.org/dc/elements/1.1/"><metadata id="metadata19"><rdf:RDF><cc:Work rdf:about=""><dc:format>image/svg+xml</dc:format><dc:type rdf:resource="http://purl.org/dc/dcmitype/StillImage"/><dc:title/></cc:Work></rdf:RDF></metadata><defs id="defs17">
</defs>
<circle id="circle5" style="fill:#5cd9cd;" cx="512.3" cy="902" r="70.9"/><g id="g7">
		<path id="path9" d="m543.7,889.4h-1.3v-17.5c0-0.4-0.2-0.8-0.6-1.1-0.4-0.2-0.8-0.3-1.2-0.1l-0.7,0.4c-10,5-19.6,9.8-37.7,11.4v28.2,0.6c17,1.6,26.3,6.3,36.1,11.2l2.2,1.1c0.2,0.1,0.4,0.1,0.6,0.1s0.5-0.1,0.7-0.2c0.4-0.2,0.6-0.6,0.6-1.1v-18.1h1.3c3.5,0,6.3-2.5,6.3-5.6v-3.2c-0.1-3.2-3-6.1-6.3-6.1zm3.7,9.4c0,1.9-1.9,3.1-3.8,3.1h-1.3v-10.1h1.3c1.9,0,3.8,1.8,3.8,3.8v3.2z" style="fill:#ffffff;"/>
		<path id="path11" d="m494.7,883c-2,0.1-4.1,0.1-6.3,0.1h-3.8c-5.6,0-10.1,5-10.1,11.3v6.3c0,5.9,4.1,10.1,10.1,10.1h3.8c2.2,0,4.3,0,6.3,0.1v-0.1-27.8z" style="fill:#ffffff;"/>
		<path id="path13" d="m511.2,931c-6.9-3.5-11.5-11.6-11.5-20.2v-28.9c0-0.7-0.6-1.3-1.3-1.3s-1.3,0.6-1.3,1.3v28.9c0,9.7,5.1,18.6,12.9,22.5,0.2,0.1,0.4,0.1,0.6,0.1,0.5,0,0.9-0.3,1.1-0.7,0.4-0.7,0.2-1.4-0.5-1.7z" style="fill:#ffffff;"/>
	</g>
</svg>
