<!-- Generator: Adobe Illustrator 18.1.1, SVG Export Plug-In . SVG Version: 6.00 Build 0)  -->
<svg id="Layer_1" xmlns:rdf="http://www.w3.org/1999/02/22-rdf-syntax-ns#" xmlns="http://www.w3.org/2000/svg" enable-background="new 441.4 379.1 141.7 141.7" xml:space="preserve" viewBox="441.4 379.1 141.7 141.7" height="100%" width="100%" version="1.1" y="0px" x="0px" xmlns:cc="http://creativecommons.org/ns#" xmlns:dc="http://purl.org/dc/elements/1.1/"><metadata id="metadata15"><rdf:RDF><cc:Work rdf:about=""><dc:format>image/svg+xml</dc:format><dc:type rdf:resource="http://purl.org/dc/dcmitype/StillImage"/><dc:title/></cc:Work></rdf:RDF></metadata><defs id="defs13">
</defs>
<path id="path5" d="m512.3,379.1c-39.1,0-70.9,31.8-70.9,70.9s31.8,70.9,70.9,70.9,70.9-31.8,70.9-70.9-31.9-70.9-70.9-70.9z" style="fill:#5cd9cd;"/><path id="path7" d="m513.1,484.1c-1.8,0-3.3-1.5-3.3-3.3s1.5-3.3,3.3-3.3,3.3,1.5,3.3,3.3-1.5,3.3-3.3,3.3z" style="stroke:#ffffff;stroke-width:0.5;stroke-miterlimit:10;fill:#ffffff;" stroke-miterlimit="10"/><path id="path9" d="m515.7,453.9v13.2c0,1.4-1.2,2.6-2.6,2.6s-2.6-1.2-2.6-2.6v-15.6c0-1.4,1.2-2.6,2.6-2.6,7.2,0,13-5.8,13-13s-5.8-13-13-13-13,5.8-13,13c0,1.4-1.2,2.6-2.6,2.6s-2.6-1.2-2.6-2.6c0-10.1,8.2-18.2,18.2-18.2,10.1,0,18.2,8.2,18.2,18.2,0.1,9.1-6.7,16.7-15.6,18z" style="stroke:#ffffff;stroke-width:0.5;stroke-miterlimit:10;fill:#ffffff;" stroke-miterlimit="10"/>
</svg>
