<!-- Generator: Adobe Illustrator 18.1.1, SVG Export Plug-In . SVG Version: 6.00 Build 0)  -->
<svg id="Layer_1" xmlns:rdf="http://www.w3.org/1999/02/22-rdf-syntax-ns#" xmlns="http://www.w3.org/2000/svg" enable-background="new 738.1 529.1 141.7 141.7" xml:space="preserve" viewBox="738.1 529.1 141.7 141.7" height="100%" width="100%" version="1.1" y="0px" x="0px" xmlns:cc="http://creativecommons.org/ns#" xmlns:dc="http://purl.org/dc/elements/1.1/"><metadata id="metadata25"><rdf:RDF><cc:Work rdf:about=""><dc:format>image/svg+xml</dc:format><dc:type rdf:resource="http://purl.org/dc/dcmitype/StillImage"/><dc:title/></cc:Work></rdf:RDF></metadata><defs id="defs23">
</defs>
<circle id="circle5" style="fill:#5cd9cd;" cx="808.9" cy="600" r="70.9"/><rect id="rect7" style="fill:#ffffff;" height="65.9" width="53.4" y="568.8" x="782.2"/><path id="path9" d="m804.1,612.6-7.7,7.7c-0.2,0.2-0.5,0.4-0.9,0.4-0.3,0-0.6-0.1-0.9-0.4l-4.6-4.6c-0.5-0.5-0.5-1.2,0-1.7s1.2-0.5,1.7,0l3.7,3.7,6.8-6.8c0.5-0.5,1.2-0.5,1.7,0,0.7,0.5,0.7,1.3,0.2,1.7z" style="fill:#5cd9cd;"/><path id="path11" d="m804.1,598.9-7.7,7.7c-0.2,0.2-0.5,0.4-0.9,0.4-0.3,0-0.6-0.1-0.9-0.4l-4.6-4.6c-0.5-0.5-0.5-1.2,0-1.7s1.2-0.5,1.7,0l3.7,3.7,6.8-6.8c0.5-0.5,1.2-0.5,1.7,0,0.7,0.4,0.7,1.2,0.2,1.7z" style="fill:#5cd9cd;"/><path id="path13" d="m804.1,585.1-7.7,7.7c-0.2,0.2-0.5,0.4-0.9,0.4-0.3,0-0.6-0.1-0.9-0.4l-4.6-4.6c-0.5-0.5-0.5-1.2,0-1.7s1.2-0.5,1.7,0l3.7,3.7,6.8-6.8c0.5-0.5,1.2-0.5,1.7,0,0.7,0.5,0.7,1.2,0.2,1.7z" style="fill:#5cd9cd;"/><path id="path15" d="m827,616.8h-17.1c-0.9,0-1.7-0.5-1.7-1.2s0.8-1.2,1.7-1.2h17.1c0.9,0,1.7,0.5,1.7,1.2s-0.8,1.2-1.7,1.2z" style="fill:#5cd9cd;"/><path id="path17" d="m827,603.8h-17.1c-0.9,0-1.7-0.5-1.7-1.2s0.8-1.2,1.7-1.2h17.1c0.9,0,1.7,0.5,1.7,1.2s-0.8,1.2-1.7,1.2z" style="fill:#5cd9cd;"/><path id="path19" d="m827,591.6h-17.1c-0.9,0-1.7-0.5-1.7-1.2s0.8-1.2,1.7-1.2h17.1c0.9,0,1.7,0.5,1.7,1.2s-0.8,1.2-1.7,1.2z" style="fill:#5cd9cd;"/>
</svg>
