<!-- Generator: Adobe Illustrator 18.1.1, SVG Export Plug-In . SVG Version: 6.00 Build 0)  -->
<svg id="Layer_1" xmlns:rdf="http://www.w3.org/1999/02/22-rdf-syntax-ns#" xmlns="http://www.w3.org/2000/svg" enable-background="new 886.6 529.1 141.7 141.7" xml:space="preserve" viewBox="886.6 529.1 141.7 141.7" height="100%" width="100%" version="1.1" y="0px" x="0px" xmlns:cc="http://creativecommons.org/ns#" xmlns:dc="http://purl.org/dc/elements/1.1/"><metadata id="metadata23"><rdf:RDF><cc:Work rdf:about=""><dc:format>image/svg+xml</dc:format><dc:type rdf:resource="http://purl.org/dc/dcmitype/StillImage"/><dc:title/></cc:Work></rdf:RDF></metadata><defs id="defs21">
</defs>
<circle id="circle5" style="fill:#e44e68;" cx="957.4" cy="600" r="70.9"/><g id="g7">
		<path id="path9" d="m921.2,607.6c0,4.2,1.9,6.9,5.1,7.5v17.9h15.2v-17.9c3.2-0.6,5.1-3.3,5.1-7.5v-17.8h-25.4v17.8z" style="fill:#ffffff;"/>
		<path id="path11" d="m933.9,587.3c5.6,0,10.2-4.6,10.2-10.2s-4.6-10.2-10.2-10.2-10.2,4.6-10.2,10.2,4.6,10.2,10.2,10.2z" style="fill:#ffffff;"/>
	</g><g id="g13">
		<path id="path15" d="m967.1,607.6c0,4.2,1.9,6.9,5.1,7.5v17.9h15.2v-17.9c3.2-0.6,5.1-3.3,5.1-7.5v-17.8h-25.4v17.8z" style="fill:#ffffff;"/>
		<path id="path17" d="m979.8,587.3c5.6,0,10.2-4.6,10.2-10.2s-4.6-10.2-10.2-10.2-10.2,4.6-10.2,10.2,4.6,10.2,10.2,10.2z" style="fill:#ffffff;"/>
	</g>
</svg>
