<!-- Generator: Adobe Illustrator 18.1.1, SVG Export Plug-In . SVG Version: 6.00 Build 0)  -->
<svg id="Layer_1" xmlns:rdf="http://www.w3.org/1999/02/22-rdf-syntax-ns#" xmlns="http://www.w3.org/2000/svg" enable-background="new 886.6 679.1 141.7 141.7" xml:space="preserve" viewBox="886.6 679.1 141.7 141.7" height="100%" width="100%" version="1.1" y="0px" x="0px" xmlns:cc="http://creativecommons.org/ns#" xmlns:dc="http://purl.org/dc/elements/1.1/"><metadata id="metadata13"><rdf:RDF><cc:Work rdf:about=""><dc:format>image/svg+xml</dc:format><dc:type rdf:resource="http://purl.org/dc/dcmitype/StillImage"/><dc:title/></cc:Work></rdf:RDF></metadata><defs id="defs11">
</defs>
<circle id="circle5" style="fill:#e44e68;" cx="957.4" cy="750" r="70.9"/><path id="path7" d="m957.4,714.6c-13,0-23.6,10.6-23.6,23.6,0,12.6,21.7,42,22.7,43.3,0.2,0.3,0.5,0.5,0.9,0.5s0.7-0.2,0.9-0.5c0.9-1.2,22.7-30.7,22.7-43.3,0-13-10.6-23.6-23.6-23.6zm0,33.6c-5.6,0-10.1-4.5-10.1-10.1s4.5-10.1,10.1-10.1,10.1,4.5,10.1,10.1-4.5,10.1-10.1,10.1z" style="fill:#ffffff;"/>
</svg>
